# Blender v3.5.1 OBJ File: 'win.blend'
# www.blender.org
mtllib end.mtl
o end_Circle
v 5.000000 0.000000 -8.660254
v -5.000000 0.000000 -8.660254
v -10.000000 0.000000 0.000000
v -5.000000 0.000000 8.660254
v 5.000000 0.000000 8.660254
v 10.000000 0.000000 0.000000
v 5.000000 0.600000 -8.660254
v -5.000000 0.600000 -8.660254
v -10.000000 0.600000 0.000000
v -5.000000 0.600000 8.660254
v 5.000000 0.600000 8.660254
v 10.000000 0.600000 0.000000
vt 0.000000 0.000000
vt 0.000000 0.000000
vt 0.000000 0.000000
vt 0.000000 0.000000
vt 0.000000 0.000000
vt 0.000000 0.000000
vt 0.000094 0.749953
vt 0.000094 0.250047
vt 0.444108 0.000094
vt 0.888122 0.250047
vt 0.888123 0.749953
vt 0.444108 0.999906
vt 0.000000 0.000000
vt 0.000000 0.000000
vt 0.000000 0.000000
vt 0.000000 0.000000
vt 0.000000 0.000000
vt 0.000000 0.000000
vn 0.0000 -1.0000 0.0000
vn 0.0000 1.0000 0.0000
vn 0.8660 0.0000 0.5000
vn -0.8660 0.0000 0.5000
vn 0.0000 0.0000 -1.0000
vn 0.8660 0.0000 -0.5000
vn 0.0000 0.0000 1.0000
vn -0.8660 0.0000 -0.5000
usemtl floor
s off
f 2/1/1 1/2/1 6/3/1 5/4/1 4/5/1 3/6/1
f 8/7/2 9/8/2 10/9/2 11/10/2 12/11/2 7/12/2
f 5/4/3 6/3/3 12/13/3 11/14/3
f 3/6/4 4/5/4 10/15/4 9/16/4
f 1/2/5 2/1/5 8/17/5 7/18/5
f 6/3/6 1/2/6 7/18/6 12/13/6
f 4/5/7 5/4/7 11/14/7 10/15/7
f 2/1/8 3/6/8 9/16/8 8/17/8
