# Blender v3.5.1 OBJ File: 'baller.blend'
# www.blender.org
mtllib Wall.mtl
o Wall
v -1.000000 -21.205151 129.000000
v 1.000000 3.000000 129.000000
v -1.000000 -21.205151 -1.000000
v 1.000000 3.000000 -1.000000
v 1.000000 -21.205151 129.000000
v 1.000000 -21.205151 -1.000000
v -1.000000 1.000000 129.000000
v -1.000000 1.000000 -1.000000
v 1.000000 1.000000 -1.000000
v 1.000000 1.000000 129.000000
vt 9.089435 0.500000
vt 9.089435 0.737632
vt -8.089435 0.737633
vt -8.089435 0.500000
vt 0.500000 0.000000
vt 1.000000 1.000000
vt 0.500000 1.000000
vt -8.089435 0.500000
vt -8.089435 0.840451
vt 9.089435 0.840451
vt 9.089435 0.500000
vt 0.500000 0.000000
vt 1.000000 1.000000
vt 0.500000 1.000000
vt 0.000000 -8.089435
vt 1.000000 -8.089435
vt 1.000000 9.089435
vt 0.000000 9.089435
vt 0.000000 0.000000
vt 0.000000 1.000000
vt -8.089435 0.159549
vt 9.089435 0.159549
vt 0.000000 0.000000
vt 0.000000 1.000000
vt 9.089435 -0.514470
vt 9.089435 1.276831
vt -8.089435 1.276838
vt -8.089435 -0.514463
vn -0.7071 0.7071 0.0000
vn 0.0000 0.0000 -1.0000
vn 1.0000 0.0000 0.0000
vn 0.0000 0.0000 1.0000
vn 0.0000 -1.0000 0.0000
vn -1.0000 0.0000 0.0000
usemtl Bricks
s off
f 7/1/1 2/2/1 4/3/1 8/4/1
f 8/5/2 4/6/2 9/7/2
f 9/8/3 4/9/3 2/10/3 10/11/3
f 10/12/4 2/13/4 7/14/4
f 3/15/5 6/16/5 5/17/5 1/18/5
f 5/19/4 10/12/4 7/14/4 1/20/4
f 6/21/3 9/8/3 10/11/3 5/22/3
f 3/23/2 8/5/2 9/7/2 6/24/2
f 1/25/6 7/26/6 8/27/6 3/28/6
